<svg width="30" height="30" viewBox="0 0 30 30" fill="none" xmlns="http://www.w3.org/2000/svg">
<path d="M5.325 23.4375C6.9 22.4375 8.45625 21.6812 9.99375 21.1687C11.5313 20.6562 13.2 20.4 15 20.4C16.8 20.4 18.475 20.6562 20.025 21.1687C21.575 21.6812 23.1375 22.4375 24.7125 23.4375C25.8125 22.0875 26.5938 20.725 27.0563 19.35C27.5188 17.975 27.75 16.525 27.75 15C27.75 11.375 26.5312 8.34375 24.0938 5.90625C21.6562 3.46875 18.625 2.25 15 2.25C11.375 2.25 8.34375 3.46875 5.90625 5.90625C3.46875 8.34375 2.25 11.375 2.25 15C2.25 16.525 2.4875 17.975 2.9625 19.35C3.4375 20.725 4.225 22.0875 5.325 23.4375ZM15 16.125C13.55 16.125 12.3313 15.6312 11.3438 14.6437C10.3562 13.6562 9.8625 12.4375 9.8625 10.9875C9.8625 9.5375 10.3562 8.31875 11.3438 7.33125C12.3313 6.34375 13.55 5.85 15 5.85C16.45 5.85 17.6688 6.34375 18.6562 7.33125C19.6437 8.31875 20.1375 9.5375 20.1375 10.9875C20.1375 12.4375 19.6437 13.6562 18.6562 14.6437C17.6688 15.6312 16.45 16.125 15 16.125ZM15 30C12.9 30 10.9375 29.6062 9.1125 28.8187C7.2875 28.0312 5.7 26.9562 4.35 25.5938C3 24.2313 1.9375 22.6375 1.1625 20.8125C0.3875 18.9875 0 17.0375 0 14.9625C0 12.9125 0.39375 10.975 1.18125 9.15C1.96875 7.325 3.04375 5.7375 4.40625 4.3875C5.76875 3.0375 7.3625 1.96875 9.1875 1.18125C11.0125 0.39375 12.9625 0 15.0375 0C17.0875 0 19.025 0.39375 20.85 1.18125C22.675 1.96875 24.2625 3.0375 25.6125 4.3875C26.9625 5.7375 28.0312 7.325 28.8187 9.15C29.6062 10.975 30 12.925 30 15C30 17.05 29.6062 18.9875 28.8187 20.8125C28.0312 22.6375 26.9625 24.2313 25.6125 25.5938C24.2625 26.9562 22.675 28.0312 20.85 28.8187C19.025 29.6062 17.075 30 15 30Z" fill="#3C79F5"/>
</svg>
