<svg width="19" height="19" viewBox="0 0 19 19" fill="none" xmlns="http://www.w3.org/2000/svg">
<path d="M14.2698 16.6251H5.02712V6.49175L10.5292 0.791748L11.1823 1.30633C11.3275 1.41189 11.4231 1.53064 11.4693 1.66258C11.5155 1.79453 11.5386 1.94626 11.5386 2.11779V2.31571L10.648 6.49175H17.0209C17.3243 6.49175 17.5981 6.6138 17.8422 6.85789C18.0863 7.10199 18.2084 7.37578 18.2084 7.67925V9.30216C18.2084 9.4473 18.1919 9.61553 18.1589 9.80685C18.1259 9.99817 18.0764 10.1664 18.0105 10.3115L15.7146 15.6157C15.5959 15.8928 15.4013 16.1303 15.1308 16.3282C14.8603 16.5261 14.5733 16.6251 14.2698 16.6251ZM3.83962 6.49175V16.6251H1.58337V6.49175H3.83962Z" fill="#3C79F5"/>
</svg>
