<svg width="16" height="15" viewBox="0 0 16 15" fill="none" xmlns="http://www.w3.org/2000/svg">
<path d="M8.075 11.8688C8.275 11.8688 8.44375 11.8 8.58125 11.6625C8.71875 11.525 8.7875 11.3562 8.7875 11.1562C8.7875 10.9563 8.71875 10.7875 8.58125 10.65C8.44375 10.5125 8.275 10.4438 8.075 10.4438C7.875 10.4438 7.70625 10.5125 7.56875 10.65C7.43125 10.7875 7.3625 10.9563 7.3625 11.1562C7.3625 11.3562 7.43125 11.525 7.56875 11.6625C7.70625 11.8 7.875 11.8688 8.075 11.8688ZM7.41875 9.13125H8.525C8.525 8.80625 8.56563 8.50938 8.64688 8.24063C8.72813 7.97188 8.98125 7.6625 9.40625 7.3125C9.79375 6.9875 10.0688 6.66875 10.2313 6.35625C10.3938 6.04375 10.475 5.7 10.475 5.325C10.475 4.6625 10.2594 4.13125 9.82812 3.73125C9.39688 3.33125 8.825 3.13125 8.1125 3.13125C7.5 3.13125 6.95938 3.28437 6.49063 3.59062C6.02188 3.89687 5.68125 4.31875 5.46875 4.85625L6.4625 5.23125C6.6 4.88125 6.80625 4.60938 7.08125 4.41562C7.35625 4.22187 7.68125 4.125 8.05625 4.125C8.48125 4.125 8.825 4.24062 9.0875 4.47188C9.35 4.70312 9.48125 5 9.48125 5.3625C9.48125 5.6375 9.4 5.89687 9.2375 6.14062C9.075 6.38438 8.8375 6.6375 8.525 6.9C8.15 7.225 7.87187 7.54688 7.69062 7.86563C7.50937 8.18437 7.41875 8.60625 7.41875 9.13125ZM8 15C6.975 15 6.00625 14.8031 5.09375 14.4094C4.18125 14.0156 3.38438 13.4781 2.70312 12.7969C2.02188 12.1156 1.48437 11.3188 1.09062 10.4062C0.696875 9.49375 0.5 8.525 0.5 7.5C0.5 6.4625 0.696875 5.4875 1.09062 4.575C1.48437 3.6625 2.02188 2.86875 2.70312 2.19375C3.38438 1.51875 4.18125 0.984375 5.09375 0.590625C6.00625 0.196875 6.975 0 8 0C9.0375 0 10.0125 0.196875 10.925 0.590625C11.8375 0.984375 12.6313 1.51875 13.3063 2.19375C13.9813 2.86875 14.5156 3.6625 14.9094 4.575C15.3031 5.4875 15.5 6.4625 15.5 7.5C15.5 8.525 15.3031 9.49375 14.9094 10.4062C14.5156 11.3188 13.9813 12.1156 13.3063 12.7969C12.6313 13.4781 11.8375 14.0156 10.925 14.4094C10.0125 14.8031 9.0375 15 8 15ZM8 13.875C9.775 13.875 11.2812 13.2531 12.5187 12.0094C13.7562 10.7656 14.375 9.2625 14.375 7.5C14.375 5.725 13.7562 4.21875 12.5187 2.98125C11.2812 1.74375 9.775 1.125 8 1.125C6.2375 1.125 4.73438 1.74375 3.49063 2.98125C2.24688 4.21875 1.625 5.725 1.625 7.5C1.625 9.2625 2.24688 10.7656 3.49063 12.0094C4.73438 13.2531 6.2375 13.875 8 13.875Z" fill="#F9B234"/>
</svg>
