<svg width="64" height="67" viewBox="0 0 64 67" fill="none" xmlns="http://www.w3.org/2000/svg">
<path d="M13.8083 66.8469C41.4226 66.8469 63.8083 44.4611 63.8084 16.8469L63.8084 5C63.8084 2.23858 61.5698 -2.66947e-08 58.8084 -5.96244e-08L50 -1.64663e-07C22.3857 -4.9396e-07 -3.76168e-05 22.3858 -3.79461e-05 50L-3.80873e-05 61.8469C-3.81203e-05 64.6083 2.23854 66.8469 4.99996 66.8469L13.8083 66.8469Z" fill="#2F37A4"/>
<g clip-path="url(#clip0_531_2279)">
<path d="M10.8442 42.5V40.1812C10.8442 39.0437 11.4418 38.125 12.6371 37.425C13.8323 36.725 15.369 36.375 17.2472 36.375C17.6171 36.375 17.9586 36.3823 18.2716 36.3969C18.5847 36.4115 18.8977 36.4479 19.2107 36.5062C18.9831 37.0021 18.8123 37.5052 18.6985 38.0156C18.5847 38.526 18.5277 39.0729 18.5277 39.6562V42.5H10.8442ZM21.0889 42.5V39.6562C21.0889 37.7604 22.0351 36.2292 23.9275 35.0625C25.8199 33.8958 28.2886 33.3125 31.3336 33.3125C34.407 33.3125 36.8828 33.8958 38.761 35.0625C40.6391 36.2292 41.5782 37.7604 41.5782 39.6562V42.5H21.0889ZM44.1394 42.5V39.6562C44.1394 39.0729 44.0896 38.526 43.99 38.0156C43.8904 37.5052 43.7268 37.0021 43.4991 36.5062C43.8121 36.4479 44.1252 36.4115 44.4382 36.3969C44.7512 36.3823 45.0785 36.375 45.42 36.375C47.3551 36.375 48.906 36.725 50.0728 37.425C51.2395 38.125 51.8229 39.0437 51.8229 40.1812V42.5H44.1394ZM17.2472 35.0625C16.4219 35.0625 15.7176 34.7635 15.1342 34.1656C14.5508 33.5677 14.2591 32.8458 14.2591 32C14.2591 31.1542 14.5508 30.4323 15.1342 29.8344C15.7176 29.2365 16.4219 28.9375 17.2472 28.9375C18.0724 28.9375 18.7767 29.2365 19.3601 29.8344C19.9435 30.4323 20.2352 31.1542 20.2352 32C20.2352 32.8458 19.9435 33.5677 19.3601 34.1656C18.7767 34.7635 18.0724 35.0625 17.2472 35.0625ZM45.42 35.0625C44.5947 35.0625 43.8904 34.7635 43.307 34.1656C42.7236 33.5677 42.432 32.8458 42.432 32C42.432 31.1542 42.7236 30.4323 43.307 29.8344C43.8904 29.2365 44.5947 28.9375 45.42 28.9375C46.2452 28.9375 46.9496 29.2365 47.5329 29.8344C48.1163 30.4323 48.408 31.1542 48.408 32C48.408 32.8458 48.1163 33.5677 47.5329 34.1656C46.9496 34.7635 46.2452 35.0625 45.42 35.0625ZM31.3336 32C29.9107 32 28.7013 31.4896 27.7052 30.4688C26.7092 29.4479 26.2112 28.2083 26.2112 26.75C26.2112 25.2625 26.7092 24.0156 27.7052 23.0094C28.7013 22.0031 29.9107 21.5 31.3336 21.5C32.7849 21.5 34.0014 22.0031 34.9832 23.0094C35.965 24.0156 36.4559 25.2625 36.4559 26.75C36.4559 28.2083 35.965 29.4479 34.9832 30.4688C34.0014 31.4896 32.7849 32 31.3336 32Z" fill="#F5F4FA"/>
</g>
<defs>
<clipPath id="clip0_531_2279">
<rect width="40.9787" height="42" fill="white" transform="translate(10.8442 11)"/>
</clipPath>
</defs>
</svg>
