<svg width="64" height="67" viewBox="0 0 64 67" fill="none" xmlns="http://www.w3.org/2000/svg">
<path d="M13.8083 66.8469C41.4226 66.8469 63.8083 44.4611 63.8084 16.8469L63.8084 5C63.8084 2.23858 61.5698 -2.66947e-08 58.8084 -5.96244e-08L50 -1.64663e-07C22.3857 -4.9396e-07 -3.38021e-05 22.3858 -3.41314e-05 50L-3.42727e-05 61.8469C-3.43056e-05 64.6083 2.23854 66.8469 4.99997 66.8469L13.8083 66.8469Z" fill="#2F37A4"/>
<path d="M15.9167 40.7917V20.4479C15.9167 20.1076 16.0747 19.7674 16.3907 19.4271C16.7067 19.0868 17.0348 18.9167 17.3751 18.9167H36.297C36.6615 18.9167 37.0018 19.0807 37.3178 19.4089C37.6338 19.737 37.7917 20.0833 37.7917 20.4479V33.4271C37.7917 33.7674 37.6338 34.1076 37.3178 34.4479C37.0018 34.7882 36.6615 34.9583 36.297 34.9583H21.7501L15.9167 40.7917ZM23.2449 42.25C22.9046 42.25 22.5704 42.0799 22.2423 41.7396C21.9141 41.3993 21.7501 41.059 21.7501 40.7188V37.1458H39.9792V24.75H43.6251C43.9654 24.75 44.2935 24.9201 44.6095 25.2604C44.9254 25.6007 45.0834 25.9531 45.0834 26.3177V48.0469L39.2865 42.25H23.2449ZM35.6042 21.1042H18.1042V35.5052L20.8386 32.7708H35.6042V21.1042Z" fill="white"/>
</svg>
