<svg width="19" height="19" viewBox="0 0 19 19" fill="none" xmlns="http://www.w3.org/2000/svg">
<g clip-path="url(#clip0_1006_582)">
<path d="M4.73017 2.37492L13.9729 2.37492L13.9729 12.5083L8.47079 18.2083L7.81767 17.6937C7.67253 17.5881 7.57687 17.4694 7.53069 17.3374C7.48451 17.2055 7.46142 17.0537 7.46142 16.8822L7.46142 16.6843L8.35204 12.5083L1.97913 12.5083C1.67565 12.5083 1.40187 12.3862 1.15777 12.1421C0.913674 11.898 0.791627 11.6242 0.791627 11.3208L0.791627 9.69783C0.791627 9.5527 0.80812 9.38447 0.841105 9.19315C0.874091 9.00183 0.923571 8.8336 0.989543 8.68846L3.28538 3.38429C3.40413 3.10721 3.59875 2.86971 3.86923 2.67179C4.13972 2.47388 4.4267 2.37492 4.73017 2.37492ZM15.1604 12.5083L15.1604 2.37492L17.4166 2.37492L17.4166 12.5083L15.1604 12.5083Z" fill="#3C79F5"/>
</g>
<defs>
<clipPath id="clip0_1006_582">
<rect width="19" height="19" fill="white" transform="translate(19 19) rotate(-180)"/>
</clipPath>
</defs>
</svg>
