<svg width="64" height="67" viewBox="0 0 64 67" fill="none" xmlns="http://www.w3.org/2000/svg">
<path d="M13.8083 66.8469C41.4226 66.8469 63.8083 44.4611 63.8084 16.8469L63.8084 4.99998C63.8084 2.23856 61.5698 -1.52855e-05 58.8084 -1.53184e-05L50 -1.54235e-05C22.3857 -1.57527e-05 -3.38021e-05 22.3857 -3.41314e-05 50L-3.42727e-05 61.8469C-3.43056e-05 64.6083 2.23854 66.8469 4.99997 66.8469L13.8083 66.8469Z" fill="#2F37A4"/>
<path d="M31.9044 48.6159C29.8028 48.6159 27.8277 48.2171 25.9793 47.4195C24.1309 46.6219 22.523 45.5394 21.1557 44.1721C19.7884 42.8048 18.7059 41.1969 17.9083 39.3485C17.1107 37.5001 16.7119 35.5251 16.7119 33.4234C16.7119 31.3218 17.1107 29.3468 17.9083 27.4984C18.7059 25.6499 19.7884 24.0421 21.1557 22.6748C22.523 21.3074 24.1309 20.225 25.9793 19.4274C27.8277 18.6298 29.8028 18.231 31.9044 18.231C34.006 18.231 35.981 18.6298 37.8295 19.4274C39.6779 20.225 41.2857 21.3074 42.6531 22.6748C44.0204 24.0421 45.1028 25.6499 45.9005 27.4984C46.6981 29.3468 47.0969 31.3218 47.0969 33.4234C47.0969 35.5251 46.6981 37.5001 45.9005 39.3485C45.1028 41.1969 44.0204 42.8048 42.6531 44.1721C41.2857 45.5394 39.6779 46.6219 37.8295 47.4195C35.981 48.2171 34.006 48.6159 31.9044 48.6159ZM30.2712 46.2991V43.1846C29.385 43.1846 28.638 42.8554 28.0303 42.1971C27.4226 41.5387 27.1188 40.7665 27.1188 39.8802V38.2091L19.3326 30.4229C19.206 30.9293 19.1174 31.4294 19.0667 31.9232C19.0161 32.4169 18.9908 32.917 18.9908 33.4234C18.9908 36.7151 20.0606 39.589 22.2002 42.0452C24.3398 44.5013 27.0301 45.9192 30.2712 46.2991ZM41.4377 42.1971C41.9947 41.5894 42.4821 40.9437 42.8999 40.26C43.3177 39.5764 43.6722 38.8611 43.9634 38.1141C44.2546 37.3671 44.4698 36.6012 44.6091 35.8162C44.7484 35.0313 44.818 34.2337 44.818 33.4234C44.818 30.7394 44.0837 28.3023 42.6151 26.1121C41.1465 23.9218 39.1841 22.3203 36.728 21.3074V21.9911C36.728 22.8773 36.4241 23.6496 35.8164 24.3079C35.2087 24.9663 34.4618 25.2955 33.5756 25.2955H30.2712V28.5998C30.2712 29.0303 30.1003 29.3848 29.7584 29.6633C29.4166 29.9418 29.0305 30.0811 28.6 30.0811H25.4476V33.4234H35.2467C35.6772 33.4234 36.0317 33.588 36.3102 33.9172C36.5887 34.2464 36.728 34.6262 36.728 35.0566V39.8802H38.3612C39.0955 39.8802 39.7412 40.0955 40.2982 40.5259C40.8553 40.9564 41.2351 41.5134 41.4377 42.1971Z" fill="#F5F4FA"/>
</svg>
