<svg width="17" height="17" viewBox="0 0 17 17" fill="none" xmlns="http://www.w3.org/2000/svg">
<path d="M12.1125 8.9124C11.525 8.3874 10.9656 7.8749 10.4344 7.3749C9.90313 6.8749 9.4375 6.3874 9.0375 5.9124C8.6375 5.4374 8.31875 4.97803 8.08125 4.53428C7.84375 4.09053 7.725 3.6624 7.725 3.2499C7.725 2.5999 7.94375 2.05615 8.38125 1.61865C8.81875 1.18115 9.3625 0.962402 10.0125 0.962402C10.3875 0.962402 10.7594 1.06553 11.1281 1.27178C11.4969 1.47803 11.825 1.75615 12.1125 2.10615C12.4 1.75615 12.7281 1.47803 13.0969 1.27178C13.4656 1.06553 13.8375 0.962402 14.2125 0.962402C14.8625 0.962402 15.4062 1.18115 15.8438 1.61865C16.2812 2.05615 16.5 2.5999 16.5 3.2499C16.5 3.6624 16.3812 4.09053 16.1437 4.53428C15.9062 4.97803 15.5875 5.4374 15.1875 5.9124C14.7875 6.3874 14.3219 6.8749 13.7906 7.3749C13.2594 7.8749 12.7 8.3874 12.1125 8.9124ZM10.6125 16.3374L4.78125 14.6687V8.3499H6.54375L11.325 10.1499C11.6625 10.2749 11.9469 10.478 12.1781 10.7593C12.4094 11.0405 12.525 11.4437 12.525 11.9687H11.325C10.7125 11.9687 10.2656 11.9499 9.98438 11.9124C9.70312 11.8749 9.40625 11.8062 9.09375 11.7062L7.725 11.2562L7.5375 11.7812L8.94375 12.2687C9.23125 12.3687 9.55312 12.4374 9.90937 12.4749C10.2656 12.5124 10.6313 12.5312 11.0063 12.5312H14.6625C15.375 12.5312 15.8594 12.6687 16.1156 12.9437C16.3719 13.2187 16.5 13.5874 16.5 14.0499V14.5374L10.6125 16.3374ZM0.75 15.7374V8.3499H3.6375V15.7374H0.75Z" fill="#F9B234"/>
</svg>
