<svg width="64" height="67" viewBox="0 0 64 67" fill="none" xmlns="http://www.w3.org/2000/svg">
<path d="M13.8083 66.8469C41.4226 66.8469 63.8083 44.4611 63.8084 16.8469L63.8084 5C63.8084 2.23858 61.5698 -2.66947e-08 58.8084 -5.96244e-08L50 -1.64663e-07C22.3857 -4.9396e-07 -3.38021e-05 22.3858 -3.41314e-05 50L-3.42727e-05 61.8469C-3.43056e-05 64.6083 2.23854 66.8469 4.99997 66.8469L13.8083 66.8469Z" fill="#2F37A4"/>
<path d="M25.8896 51.5L22.7246 46.0833L16.4362 44.7917L17.1442 38.6667L13.1462 34L17.1442 29.375L16.4362 23.25L22.7246 21.9583L25.8896 16.5L31.47 19.0833L37.0505 16.5L40.2571 21.9583L46.5039 23.25L45.7959 29.375L49.7938 34L45.7959 38.6667L46.5039 44.7917L40.2571 46.0833L37.0505 51.5L31.47 48.9167L25.8896 51.5ZM27.014 48.2083L31.47 46.3333L36.051 48.2083L38.8412 44.0417L43.7137 42.7917L43.2139 37.8333L46.5872 34L43.2139 30.0833L43.7137 25.125L38.8412 23.9583L35.9677 19.7917L31.47 21.6667L26.8891 19.7917L24.0989 23.9583L19.2264 25.125L19.7261 30.0833L16.3529 34L19.7261 37.8333L19.2264 42.875L24.0989 44.0417L27.014 48.2083ZM29.6793 39.5417L39.1327 30.1667L37.2587 28.4583L29.6793 35.9583L25.723 31.8333L23.8074 33.7083L29.6793 39.5417Z" fill="#F5F4FA"/>
</svg>
