<svg width="67" height="64" viewBox="0 0 67 64" fill="none" xmlns="http://www.w3.org/2000/svg">
<path d="M66.8469 50C66.8469 22.3858 44.4612 0 16.8469 0H5.00005C2.23862 0 4.57764e-05 2.23858 4.57764e-05 5V13.8084C4.57764e-05 41.4226 22.3858 63.8084 50 63.8084H61.8469C64.6083 63.8084 66.8469 61.5698 66.8469 58.8084V50Z" fill="#2F37A4"/>
<path d="M47.3993 39.5031V28.0469L31.9292 36.375L14.1041 26.625L31.9292 16.875L49.8355 26.625V39.5031H47.3993ZM31.9292 46.125L20.1541 39.6656V31.1344L31.9292 37.5938L43.7043 31.1344V39.6656L31.9292 46.125Z" fill="#F5F4FA"/>
</svg>
