<svg width="45" height="45" viewBox="0 0 45 45" fill="none" xmlns="http://www.w3.org/2000/svg">
<path d="M45 30C45 13.4315 31.5685 0 15 0H0V15C0 31.5685 13.4315 45 30 45H45V30Z" fill="#2F37A4"/>
<path d="M14.5 29.31L21.34 25.23C21.5 25.13 21.64 25.04 21.76 24.96C21.9 24.86 22.01 24.77 22.09 24.69C21.95 24.77 21.79 24.83 21.61 24.87C21.43 24.89 21.23 24.9 21.01 24.9C19.59 24.8 18.36 24.44 17.32 23.82C16.3 23.2 15.51 22.41 14.95 21.45C14.41 20.49 14.14 19.48 14.14 18.42C14.14 17.2 14.49 16.07 15.19 15.03C15.89 13.99 16.89 13.15 18.19 12.51C19.49 11.87 21.03 11.55 22.81 11.55C24.47 11.55 25.95 11.85 27.25 12.45C28.57 13.05 29.6 13.88 30.34 14.94C31.1 15.98 31.48 17.17 31.48 18.51C31.48 19.43 31.3 20.32 30.94 21.18C30.58 22.02 30.07 22.81 29.41 23.55C28.77 24.27 28 24.92 27.1 25.5C27 25.58 26.9 25.66 26.8 25.74C26.7 25.8 26.59 25.86 26.47 25.92L21.58 28.86H31.63V33H14.5V29.31ZM22.78 21.81C23.58 21.81 24.29 21.68 24.91 21.42C25.55 21.14 26.04 20.76 26.38 20.28C26.74 19.8 26.92 19.25 26.92 18.63C26.92 17.99 26.74 17.43 26.38 16.95C26.04 16.47 25.56 16.1 24.94 15.84C24.32 15.56 23.6 15.42 22.78 15.42C22 15.42 21.3 15.56 20.68 15.84C20.06 16.1 19.57 16.47 19.21 16.95C18.87 17.43 18.7 17.99 18.7 18.63C18.7 19.25 18.87 19.8 19.21 20.28C19.57 20.76 20.06 21.14 20.68 21.42C21.3 21.68 22 21.81 22.78 21.81Z" fill="white"/>
</svg>
